<svg width="284" height="171" viewBox="0 0 284 171" fill="none" xmlns="http://www.w3.org/2000/svg">
<g clip-path="url(#clip0_14_889)">
<path fill-rule="evenodd" clip-rule="evenodd" d="M107.445 49.9423V123.686C107.436 124.145 107.05 124.466 106.598 124.46H96.4038C94.8209 124.46 92.4706 123.09 92.4706 120.837V79.7375L74.183 121.589C73.3503 123.518 71.6679 124.46 69.9855 124.46C68.303 124.46 66.6292 123.518 65.7936 121.589L47.8839 79.9729V123.66C47.8839 124.097 47.5173 124.471 47.0569 124.457H33.7568C33.3049 124.471 32.9156 124.111 32.9099 123.66L32.9753 50.1437C32.9753 48.6714 34.1604 47.4601 35.6353 47.4601H46.5624C46.5793 47.4601 46.5968 47.4591 46.6144 47.4582C46.6504 47.4563 46.6873 47.4543 46.7216 47.4601C48.225 47.5168 49.5749 48.521 50.2228 50.0217L68.843 93.4081C69.0959 94.0039 69.6132 94.2989 70.1304 94.2989C70.6476 94.2989 71.1648 94.0039 71.4235 93.4081L90.0408 50.0132C90.703 48.47 92.1182 47.4601 93.687 47.4601H104.751C106.24 47.4601 107.448 48.4558 107.448 49.9423H107.445ZM157.9 48.8302V61.2243C157.9 61.9789 157.28 62.5945 156.527 62.5945H112.79V47.4601H156.527C157.283 47.4601 157.9 48.0785 157.9 48.8302ZM142.355 79.7715V92.1571C142.355 92.9117 141.735 93.5273 140.982 93.5273H112.79V78.4013H140.982C141.738 78.4013 142.355 79.0198 142.355 79.7715ZM158.028 123.09V110.704C158.028 109.953 157.411 109.334 156.655 109.334H112.787V124.46H156.655C157.408 124.46 158.028 123.844 158.028 123.09ZM196.502 93.4592H218.68L218.683 93.462C218.646 93.584 218.603 93.706 218.56 93.828C218.518 93.95 218.475 94.0635 218.424 94.1939C215.252 102.39 207.494 108.517 198.408 109.206C191.65 109.709 185.023 107.297 180.22 102.577C175.409 97.8478 172.885 91.2805 173.289 84.5289C173.994 72.7872 183.77 63.1931 195.561 62.6768C201.046 62.4328 206.474 64.1321 210.808 67.4625C211.277 67.8228 211.902 67.888 212.419 67.6356C212.936 67.3746 213.246 66.881 213.246 66.2994V51.2217C208.091 48.7508 202.353 47.4601 196.567 47.4601C196.055 47.4601 195.547 47.4742 195.035 47.4969C175.13 48.2771 158.889 64.447 158.059 84.3246C157.616 94.923 161.41 104.977 168.75 112.613C176.097 120.247 185.989 124.46 196.601 124.46C217.867 124.46 235.163 107.195 235.163 85.9671C235.163 84.1175 235.026 82.2509 234.768 80.4211C234.612 79.3715 233.691 78.5829 232.619 78.5829H192.131V89.0877C192.131 91.499 194.094 93.4592 196.502 93.4592Z" fill="#4F42ED"/>
<path d="M243.038 63.1761C247.385 63.1761 250.91 59.6579 250.91 55.3181C250.91 50.9782 247.385 47.4601 243.038 47.4601C238.69 47.4601 235.166 50.9782 235.166 55.3181C235.166 59.6579 238.69 63.1761 243.038 63.1761Z" fill="#21CEDD"/>
</g>
<path d="M243.038 63.1761C247.385 63.1761 250.91 59.6579 250.91 55.3181C250.91 50.9782 247.385 47.4601 243.038 47.4601C238.69 47.4601 235.166 50.9782 235.166 55.3181C235.166 59.6579 238.69 63.1761 243.038 63.1761Z" fill="#21CEDD"/>
<defs>
<clipPath id="clip0_14_889">
<rect width="218" height="77" fill="white" transform="translate(32.9099 47.4601)"/>
</clipPath>
</defs>
</svg>
