<?xml version="1.0" encoding="UTF-8"?> <svg xmlns="http://www.w3.org/2000/svg" width="55" height="67" viewBox="0 0 55 67" fill="none"><path d="M10.4298 59.4371C9.66461 59.4371 9.04433 58.8168 9.04433 58.0517V17.5243L1.58867 18.3074C1.20817 18.3474 0.932127 18.6882 0.972111 19.0687L5.84085 65.4C5.88084 65.7805 6.2217 66.0565 6.60218 66.0165L37.9482 62.722C38.3287 62.682 38.6048 62.3411 38.5648 61.9606L38.2995 59.4371H10.4298Z" fill="#00BFA5"></path><path d="M22.9087 0.0380303C22.5282 -0.00195666 22.1874 0.274035 22.1473 0.654492L21.5202 6.61744H45.412C46.1771 6.61744 46.7974 7.23772 46.7974 8.00287V50.7833L49.2396 51.04C49.62 51.08 49.9609 50.8039 50.0009 50.4235L54.8713 4.09391C54.9113 3.71342 54.6353 3.37255 54.2548 3.33256L22.9087 0.0380303Z" fill="#006AFF"></path><path d="M12.1616 9.04195C11.779 9.04195 11.4688 9.35209 11.4688 9.73467V56.3199C11.4688 56.7024 11.779 57.0126 12.1616 57.0126H43.6802C44.0627 57.0126 44.3729 56.7024 44.3729 56.3199V9.73467C44.3729 9.35209 44.0627 9.04195 43.6802 9.04195H12.1616Z" fill="#E0185E"></path><g clip-path="url(#clip0_1125_7940)"><path d="M28.8153 17.4214L27.9321 16.8326L27.0315 17.4214C26.6505 17.6812 17.5933 23.7944 17.5933 33.25C17.5933 40.2984 22.6155 42.8787 26.2869 43.4502V47.8663C26.2869 48.7495 26.9969 49.4768 27.8801 49.4768C28.7633 49.4768 29.4907 48.7495 29.4907 47.8663V43.4502C33.1621 42.8787 38.2016 40.3157 38.2189 33.2846C38.2362 23.829 29.2136 17.6812 28.8153 17.4214ZM33.4565 38.9129C32.123 40.1425 30.4951 40.6447 29.456 40.8525V28.8685C29.4734 28.0373 28.7633 27.3619 27.8801 27.3619C26.9969 27.3619 26.2869 28.02 26.2869 28.8685V40.8525C25.2305 40.6447 23.6199 40.1252 22.3211 38.9129C20.901 37.5968 20.1736 35.6918 20.1736 33.2846C20.1736 30.8774 21.5071 26.7038 24.1394 23.5866C25.6288 21.8201 27.1181 20.5906 27.8974 20.0018C28.6767 20.5906 30.1661 21.8375 31.6554 23.6039C34.2877 26.7384 35.6039 29.9942 35.6039 33.3192C35.6039 36.6443 34.8765 37.6141 33.4392 38.9302L33.4565 38.9129Z" fill="#FEFEFE"></path></g><defs><clipPath id="clip0_1125_7940"><rect width="20.6256" height="32.6443" fill="white" transform="translate(17.5933 16.8326)"></rect></clipPath></defs></svg> 